<?xml version="1.0" encoding="UTF-8" standalone="no"?>
<!DOCTYPE svg PUBLIC "-//W3C//DTD SVG 1.1//EN" "http://www.w3.org/Graphics/SVG/1.1/DTD/svg11.dtd">
<!-- Generated by Microsoft Visio, SVG Export HPC_Job_Data_Flow.svg Page-1 -->
<svg xmlns="http://www.w3.org/2000/svg" xmlns:xlink="http://www.w3.org/1999/xlink" xmlns:ev="http://www.w3.org/2001/xml-events"
		width="10.9125in" height="6.8282in" viewBox="0 0 785.697 491.631" xml:space="preserve" color-interpolation-filters="sRGB"
		class="st19">
	<style type="text/css">
	<![CDATA[
		.st1 {fill:#339933;stroke:#ffffff;stroke-linecap:round;stroke-linejoin:round;stroke-width:0.5}
		.st2 {fill:#ffffff;font-family:Segoe UI;font-size:0.666664em}
		.st3 {font-size:1em}
		.st4 {fill:#d80073;stroke:#ffffff;stroke-linecap:round;stroke-linejoin:round;stroke-width:0.5}
		.st5 {marker-end:url(#mrkr4-14);stroke:#1998d6;stroke-linecap:round;stroke-linejoin:round;stroke-width:0.5}
		.st6 {fill:#1998d6;fill-opacity:1;stroke:#1998d6;stroke-opacity:1;stroke-width:0.16556291390728}
		.st7 {fill:#ffffff;stroke:none;stroke-linecap:butt;stroke-width:7.2}
		.st8 {fill:#1076a7;font-family:Segoe UI;font-size:0.666664em}
		.st9 {fill:#ffffff}
		.st10 {stroke:#1ba1e2;stroke-linecap:round;stroke-linejoin:round;stroke-width:0.5}
		.st11 {fill:#1ba1e2;font-family:Segoe UI;font-size:0.666664em}
		.st12 {fill:#1ba1e2;stroke:#ffffff;stroke-linecap:round;stroke-linejoin:round;stroke-width:0.5}
		.st13 {fill:#1ba1e2}
		.st14 {stroke:#ffffff;stroke-linecap:round;stroke-linejoin:round;stroke-width:0.5}
		.st15 {fill:#ffffff;stroke:#d80073;stroke-linecap:round;stroke-linejoin:round;stroke-width:0.5}
		.st16 {fill:#d80073;font-family:Segoe UI;font-size:0.666664em}
		.st17 {fill:#f09609;stroke:#ffffff;stroke-linecap:round;stroke-linejoin:round;stroke-width:0.5}
		.st18 {fill:#ffffff;stroke:none;stroke-linecap:butt}
		.st19 {fill:none;fill-rule:evenodd;font-size:12px;overflow:visible;stroke-linecap:square;stroke-miterlimit:3}
	]]>
	</style>

	<defs id="Markers">
		<g id="lend4">
			<path d="M 2 1 L 0 0 L 2 -1 L 2 1 " style="stroke:none"/>
		</g>
		<marker id="mrkr4-14" class="st6" refX="-12.08" orient="auto" markerUnits="strokeWidth" overflow="visible">
			<use xlink:href="#lend4" transform="scale(-6.04,-6.04) "/>
		</marker>
	</defs>
	<g>
		<title>Page-1</title>
		<g id="shape1-1" transform="translate(375.841,-457.365)">
			<title>Start/End</title>
			<desc>Start HPC Computation Workflow</desc>
			<path d="M17.01 491.63 L53.86 491.63 A17.0079 17.0079 -180 0 0 53.86 457.61 L17.01 457.61 A17.0079 17.0079 -180 1 0 17.01
						 491.63 Z" class="st1"/>
			<text x="18.52" y="467.42" class="st2">Start HPC <tspan x="12.23" dy="1.2em" class="st3">Computation </tspan><tspan
						x="18.52" dy="1.2em" class="st3">Workflow</tspan></text>		</g>
		<g id="shape4-6" transform="translate(375.841,-392.168)">
			<title>Decision</title>
			<desc>Data on HPC?</desc>
			<path d="M0 470.37 L35.43 449.11 L70.87 470.37 L35.43 491.63 L0 470.37 Z" class="st4"/>
			<text x="11.05" y="472.77" class="st2">Data on HPC?</text>		</g>
		<g id="shape6-9" transform="translate(375.841,-406.341)">
			<title>Dynamic connector</title>
			<desc>NO</desc>
			<path d="M0 484.54 L-36.48 484.54" class="st5"/>
			<rect x="-27.2677" y="479.744" width="12.0155" height="9.59985" class="st7"/>
			<text x="-27.27" y="486.94" class="st8">NO</text>		</g>
		<g id="shape7-17" transform="translate(262.455,-392.168)">
			<title>Subprocess</title>
			<desc>Start HPC Data Workflow</desc>
			<path d="M0 491.63 L70.87 491.63 L70.87 449.11 L0 449.11 L0 491.63 Z" class="st9"/>
			<path d="M0 491.63 L70.87 491.63 L70.87 449.11 L0 449.11 L0 491.63" class="st10"/>
			<path d="M8.5 491.63 L8.5 449.11" class="st10"/>
			<path d="M62.36 491.63 L62.36 449.11" class="st10"/>
			<text x="18.52" y="463.17" class="st11">Start HPC <tspan x="27.2" dy="1.2em" class="st3">Data </tspan><tspan x="18.52"
						dy="1.2em" class="st3">Workflow</tspan></text>		</g>
		<g id="shape8-25" transform="translate(404.187,-457.365)">
			<title>Dynamic connector.8</title>
			<path d="M7.09 491.63 L7.09 508.27" class="st5"/>
		</g>
		<g id="shape10-30" transform="translate(404.187,-392.168)">
			<title>Dynamic connector.10</title>
			<path d="M7.09 491.63 L7.09 524.48" class="st5"/>
		</g>
		<g id="shape9-35" transform="translate(375.841,-310.757)">
			<title>Decision.9</title>
			<desc>Dataset &#60;100GB?</desc>
			<path d="M0 470.37 L35.43 449.11 L70.87 470.37 L35.43 491.63 L0 470.37 Z" class="st4"/>
			<text x="22.06" y="467.97" class="st2">Dataset <tspan x="19.4" dy="1.2em" class="st3">&#60;100GB?</tspan></text>		</g>
		<g id="shape12-39" transform="translate(446.707,-339.103)">
			<title>Dynamic connector.12</title>
			<desc>NO</desc>
			<path d="M0 498.72 L36.48 498.72" class="st5"/>
			<rect x="15.252" y="493.918" width="12.0155" height="9.59985" class="st7"/>
			<text x="15.25" y="501.12" class="st8">NO</text>		</g>
		<g id="shape11-46" transform="translate(489.226,-307.355)">
			<title>Decision.11</title>
			<desc>Dataset Within 20% of Limit?</desc>
			<path d="M0 466.97 L41.1 442.31 L82.2 466.97 L41.1 491.63 L0 466.97 Z" class="st4"/>
			<text x="15.08" y="464.57" class="st2">Dataset Within <tspan x="17.32" dy="1.2em" class="st3">20% of Limit?</tspan></text>		</g>
		<g id="shape20-50" transform="translate(571.431,-324.93)">
			<title>Dynamic connector.20</title>
			<desc>NO</desc>
			<path d="M0 484.54 L36.48 484.54" class="st5"/>
			<rect x="15.252" y="479.744" width="12.0155" height="9.59985" class="st7"/>
			<text x="15.25" y="486.94" class="st8">NO</text>		</g>
		<g id="shape19-57" transform="translate(613.951,-307.355)">
			<title>Decision.19</title>
			<desc>Can Sub-divide Dataset?</desc>
			<path d="M0 466.97 L41.1 442.31 L82.2 466.97 L41.1 491.63 L0 466.97 Z" class="st4"/>
			<text x="14.24" y="464.57" class="st2">Can Sub-divide <tspan x="25.93" dy="1.2em" class="st3">Dataset?</tspan></text>		</g>
		<g id="shape22-61" transform="translate(647.967,-307.355)">
			<title>Dynamic connector.22</title>
			<desc>YES</desc>
			<path d="M7.09 491.63 L7.09 518.81" class="st5"/>
			<rect x="0.727239" y="503.442" width="12.7186" height="9.59985" class="st7"/>
			<text x="0.73" y="510.64" class="st8">YES</text>		</g>
		<g id="shape21-68" transform="translate(619.62,-231.614)">
			<title>Process</title>
			<desc>Sub-Divide Dataset</desc>
			<rect x="0" y="449.111" width="70.8661" height="42.5197" class="st12"/>
			<text x="15.99" y="467.97" class="st2">Sub-Divide <tspan x="22.06" dy="1.2em" class="st3">Dataset</tspan></text>		</g>
		<g id="shape25-72" transform="translate(647.967,-356.678)">
			<title>Dynamic connector.25</title>
			<desc>NO</desc>
			<path d="M7.09 491.63 L7.09 461.56" class="st5"/>
			<rect x="1.0788" y="468.774" width="12.0155" height="9.59985" class="st7"/>
			<text x="1.08" y="475.97" class="st8">NO</text>		</g>
		<g id="shape27-79" transform="translate(714.581,-310.53)">
			<title>Process.27</title>
			<desc>Run job from /scratch</desc>
			<rect x="0" y="449.111" width="70.8661" height="42.5197" class="st12"/>
			<text x="9.57" y="467.97" class="st2">Run job from /<tspan x="23" dy="1.2em" class="st3">scratch</tspan></text>		</g>
		<g id="shape35-83" transform="translate(375.841,-339.103)">
			<title>Dynamic connector.35</title>
			<path d="M0 498.72 L-36.48 498.72" class="st5"/>
		</g>
		<g id="shape34-88" transform="translate(251.116,-305.711)">
			<title>Decision.34</title>
			<desc>Program takes path to dataset?</desc>
			<path d="M0 465.33 L41.1 439.02 L82.2 465.33 L41.1 491.63 L0 465.33 Z" class="st4"/>
			<text x="15.64" y="462.93" class="st2">Program takes <tspan x="12.49" dy="1.2em" class="st3">path to dataset?</tspan></text>		</g>
		<g id="shape37-92" transform="translate(251.116,-324.93)">
			<title>Dynamic connector.37</title>
			<desc>NO</desc>
			<path d="M0 484.54 L-32.23 484.54" class="st5"/>
			<rect x="-25.1417" y="479.744" width="12.0155" height="9.59985" class="st7"/>
			<text x="-25.14" y="486.94" class="st8">NO</text>		</g>
		<g id="shape36-99" transform="translate(130.644,-305.711)">
			<title>Decision.36</title>
			<desc>Asked HPC Support Team for Help?</desc>
			<path d="M0 465.33 L41.1 439.02 L82.2 465.33 L41.1 491.63 L0 465.33 Z" class="st4"/>
			<text x="21.74" y="458.13" class="st2">Asked HPC <tspan x="10.08" dy="1.2em" class="st3">Support Team for </tspan><tspan
						x="31.06" dy="1.2em" class="st3">Help?</tspan></text>		</g>
		<g id="shape39-104" transform="translate(164.659,-305.711)">
			<title>Dynamic connector.39</title>
			<desc>YES</desc>
			<path d="M7.09 491.63 L7.09 526.69" class="st5"/>
			<rect x="0.727239" y="507.382" width="12.7186" height="9.59985" class="st7"/>
			<text x="0.73" y="514.58" class="st8">YES</text>		</g>
		<g id="shape38-111" transform="translate(136.313,-236.263)">
			<title>Start/End.38</title>
			<desc>Follow HPC Team Solution</desc>
			<path d="M14.17 491.63 L56.69 491.63 A14.1732 14.1732 -180 0 0 56.69 463.28 L14.17 463.28 A14.1732 14.1732 -180 1 0 14.17
						 491.63 Z" class="st1"/>
			<text x="4.55" y="475.06" class="st2">Follow HPC Team <tspan x="20.8" dy="1.2em" class="st3">Solution</tspan></text>		</g>
		<g id="shape41-115" transform="translate(164.659,-358.322)">
			<title>Dynamic connector.41</title>
			<desc>NO</desc>
			<path d="M7.09 491.63 L7.09 463.82" class="st5"/>
			<rect x="1.0788" y="469.908" width="12.0155" height="9.59985" class="st7"/>
			<text x="1.08" y="477.11" class="st8">NO</text>		</g>
		<g id="shape40-122" transform="translate(130.644,-392.168)">
			<title>Start/End.40</title>
			<desc>Ask HPC Support Team for help in Migrating Job to /local</desc>
			<path d="M20.55 491.63 L61.65 491.63 A20.5512 24.6614 -180 0 0 61.65 442.31 L20.55 442.31 A20.5512 24.6614 -180 1 0 20.55
						 491.63 Z" class="st1"/>
			<text x="10.91" y="454.97" class="st2">Ask HPC Support <tspan x="12.25" dy="1.2em" class="st3">Team for help in </tspan><tspan
						x="9.15" dy="1.2em" class="st3">Migrating Job to /</tspan><tspan x="32.94" dy="1.2em" class="st3">local</tspan></text>		</g>
		<g id="shape47-128" transform="translate(285.132,-305.711)">
			<title>Dynamic connector.47</title>
			<path d="M7.09 491.63 L7.09 519.44" class="st5"/>
		</g>
		<g id="shape48-133" transform="translate(229.148,-152.981)">
			<title>Subprocess.48</title>
			<desc>Create directory /local/$SLURM_JOBID/</desc>
			<path d="M0 491.63 L126.14 491.63 L126.14 449.11 L0 449.11 L0 491.63 Z" class="st13"/>
			<path d="M0 491.63 L126.14 491.63 L126.14 449.11 L0 449.11 L0 491.63" class="st14"/>
			<path d="M8.5 491.63 L8.5 449.11" class="st14"/>
			<path d="M117.64 491.63 L117.64 449.11" class="st14"/>
			<text x="22.48" y="467.97" class="st2">Create directory /local/<tspan x="34.35" dy="1.2em" class="st3">$SLURM_JOBID</tspan>/</text>		</g>
		<g id="shape53-140" transform="translate(285.132,-152.981)">
			<title>Dynamic connector.53</title>
			<path d="M7.09 491.63 L7.09 519.44" class="st5"/>
		</g>
		<g id="shape52-145" transform="translate(229.148,-76.6153)">
			<title>Subprocess.52</title>
			<desc>Copy Data-set to /local/$SLURM_JOBID/&#60;dataset&#62;</desc>
			<path d="M0 491.63 L126.14 491.63 L126.14 449.11 L0 449.11 L0 491.63 Z" class="st13"/>
			<path d="M0 491.63 L126.14 491.63 L126.14 449.11 L0 449.11 L0 491.63" class="st14"/>
			<path d="M8.5 491.63 L8.5 449.11" class="st14"/>
			<path d="M117.64 491.63 L117.64 449.11" class="st14"/>
			<text x="20.72" y="467.97" class="st2">Copy Data-set to /local/<tspan x="15.95" dy="1.2em" class="st3">$SLURM_JOBID/&#60;dataset&#62;</tspan></text>		</g>
		<g id="shape56-152" transform="translate(285.132,-76.6153)">
			<title>Dynamic connector.56</title>
			<path d="M7.09 491.63 L7.09 519.44" class="st5"/>
		</g>
		<g id="shape55-157" transform="translate(229.148,-0.25)">
			<title>Subprocess.55</title>
			<desc>Change Program ‘Dataset Location’ to point to /local/$SLURM_J...</desc>
			<path d="M0 491.63 L126.14 491.63 L126.14 449.11 L0 449.11 L0 491.63 Z" class="st13"/>
			<path d="M0 491.63 L126.14 491.63 L126.14 449.11 L0 449.11 L0 491.63" class="st14"/>
			<path d="M8.5 491.63 L8.5 449.11" class="st14"/>
			<path d="M117.64 491.63 L117.64 449.11" class="st14"/>
			<text x="17.9" y="463.17" class="st2">Change Program ‘Dataset <tspan x="14.77" dy="1.2em" class="st3">Location</tspan>’ to point to /local/<tspan
						x="15.95" dy="1.2em" class="st3">$SLURM_JOBID/&#60;dataset&#62;</tspan></text>		</g>
		<g id="shape59-165" transform="translate(355.289,-14.4232)">
			<title>Dynamic connector.59</title>
			<path d="M0 484.54 L15.22 484.54" class="st5"/>
		</g>
		<g id="shape58-170" transform="translate(376.549,-0.25)">
			<title>Subprocess.58</title>
			<desc>Change Program ‘Output Location’ to /local/$SLURM_JOBID/&#60;resu...</desc>
			<path d="M0 491.63 L126.14 491.63 L126.14 449.11 L0 449.11 L0 491.63 Z" class="st13"/>
			<path d="M0 491.63 L126.14 491.63 L126.14 449.11 L0 449.11 L0 491.63" class="st14"/>
			<path d="M8.5 491.63 L8.5 449.11" class="st14"/>
			<path d="M117.64 491.63 L117.64 449.11" class="st14"/>
			<text x="18.67" y="463.17" class="st2">Change Program ‘Output <tspan x="29.94" dy="1.2em" class="st3">Location</tspan>’ to /local/<tspan
						x="17.41" dy="1.2em" class="st3">$SLURM_JOBID/&#60;results&#62;</tspan></text>		</g>
		<g id="shape62-178" transform="translate(432.533,-42.7697)">
			<title>Dynamic connector.62</title>
			<path d="M7.09 491.63 L7.09 463.82" class="st5"/>
		</g>
		<g id="shape61-183" transform="translate(376.549,-76.6153)">
			<title>Subprocess.61</title>
			<desc>Copy Results from /local/ directory to /scratch</desc>
			<path d="M0 491.63 L126.14 491.63 L126.14 449.11 L0 449.11 L0 491.63 Z" class="st13"/>
			<path d="M0 491.63 L126.14 491.63 L126.14 449.11 L0 449.11 L0 491.63" class="st14"/>
			<path d="M8.5 491.63 L8.5 449.11" class="st14"/>
			<path d="M117.64 491.63 L117.64 449.11" class="st14"/>
			<text x="18.5" y="467.97" class="st2">Copy Results from /local/ <tspan x="27.5" dy="1.2em" class="st3">directory to /scratch</tspan></text>		</g>
		<g id="shape65-190" transform="translate(446.53,-119.135)">
			<title>Dynamic connector.65</title>
			<path d="M-6.91 491.63 L-7.2 463.82" class="st5"/>
		</g>
		<g id="shape64-195" transform="translate(375.841,-152.981)">
			<title>Subprocess.64</title>
			<desc>Remove /local/$SLURM_JOBID/ directory</desc>
			<path d="M0 491.63 L126.85 491.63 L126.85 449.11 L0 449.11 L0 491.63 Z" class="st13"/>
			<path d="M0 491.63 L126.85 491.63 L126.85 449.11 L0 449.11 L0 491.63" class="st14"/>
			<path d="M8.5 491.63 L8.5 449.11" class="st14"/>
			<path d="M118.35 491.63 L118.35 449.11" class="st14"/>
			<text x="36.77" y="467.97" class="st2">Remove /local/<tspan x="17.93" dy="1.2em" class="st3">$SLURM_JOBID/ directory</tspan></text>		</g>
		<g id="shape70-202" transform="translate(619.62,-252.874)">
			<title>Dynamic connector.70</title>
			<path d="M0 491.63 L-208.35 491.63 L-208.35 439.79" class="st5"/>
		</g>
		<g id="shape72-207" transform="translate(613.951,-78.2028)">
			<title>Decision.72</title>
			<desc>Finished With Data-Set?</desc>
			<path d="M0 466.97 L41.1 442.31 L82.2 466.97 L41.1 491.63 L0 466.97 Z" class="st4"/>
			<text x="17.12" y="464.57" class="st2">Finished With <tspan x="23.91" dy="1.2em" class="st3">Data</tspan>-Set?</text>		</g>
		<g id="shape73-211" transform="translate(502.691,-174.241)">
			<title>Dynamic connector.73</title>
			<path d="M0 491.63 L21.26 491.63 L21.26 563.01 L105.22 563.01" class="st5"/>
		</g>
		<g id="shape74-216" transform="translate(750.014,-310.53)">
			<title>Dynamic connector.74</title>
			<path d="M0 491.63 L0 699.3 L-47.82 699.3" class="st5"/>
		</g>
		<g id="shape76-221" transform="translate(647.967,-127.526)">
			<title>Dynamic connector.76</title>
			<desc>NO</desc>
			<path d="M7.09 491.63 L7.09 455.15" class="st5"/>
			<rect x="1.0788" y="465.571" width="12.0155" height="9.59985" class="st7"/>
			<text x="1.08" y="472.77" class="st8">NO</text>		</g>
		<g id="shape75-228" transform="translate(619.62,-170.045)">
			<title>Start/End.75</title>
			<desc>Restart HPC Computation Workflow</desc>
			<path d="M17.01 491.63 L53.86 491.63 A17.0079 17.0079 -180 0 0 53.86 457.61 L17.01 457.61 A17.0079 17.0079 -180 1 0 17.01
						 491.63 Z" class="st1"/>
			<text x="14.46" y="467.42" class="st2">Restart HPC <tspan x="12.23" dy="1.2em" class="st3">Computation </tspan><tspan
						x="18.52" dy="1.2em" class="st3">Workflow</tspan></text>		</g>
		<g id="shape81-233" transform="translate(619.62,-7.33661)">
			<title>Start/End.81</title>
			<desc>Resume HPC Data Workflow</desc>
			<path d="M14.17 491.63 L56.69 491.63 A14.1732 14.1732 -180 0 0 56.69 463.28 L14.17 463.28 A14.1732 14.1732 -180 1 0 14.17
						 491.63 Z" class="st15"/>
			<text x="3.47" y="475.06" class="st16">Resume HPC Data <tspan x="18.52" dy="1.2em" class="st3">Workflow</tspan></text>		</g>
		<g id="shape82-237" transform="translate(647.967,-78.2028)">
			<title>Dynamic connector.82</title>
			<desc>YES</desc>
			<path d="M7.09 491.63 L7.09 528.11" class="st5"/>
			<rect x="0.727239" y="508.091" width="12.7186" height="9.59985" class="st7"/>
			<text x="0.73" y="515.29" class="st8">YES</text>		</g>
		<g id="shape84-244" transform="translate(285.132,-229.346)">
			<title>Dynamic connector.84</title>
			<path d="M7.09 491.63 L7.09 519.44" class="st5"/>
		</g>
		<g id="shape83-249" transform="translate(229.148,-229.346)">
			<title>Process.83</title>
			<desc>Alter SLURM Job &#38; Program Argument to perform all actions in ...</desc>
			<rect x="0" y="449.111" width="126.142" height="42.5197" class="st12"/>
			<text x="13.04" y="463.17" class="st2">Alter SLURM Job &#38; Program <tspan x="2.17" dy="1.2em" class="st3">Argument to perform all actions in </tspan><tspan
						x="46.31" dy="1.2em" class="st3">this chain</tspan></text>		</g>
		<g id="shape95-254" transform="translate(0.25,-448.861)">
			<title>Subprocess.95</title>
			<desc>Complete an External Workflow</desc>
			<path d="M0 491.63 L70.87 491.63 L70.87 449.11 L0 449.11 L0 491.63 Z" class="st9"/>
			<path d="M0 491.63 L70.87 491.63 L70.87 449.11 L0 449.11 L0 491.63" class="st10"/>
			<path d="M8.5 491.63 L8.5 449.11" class="st10"/>
			<path d="M62.36 491.63 L62.36 449.11" class="st10"/>
			<text x="12.91" y="463.17" class="st11">Complete an <tspan x="21.47" dy="1.2em" class="st3">External </tspan><tspan
						x="18.52" dy="1.2em" class="st3">Workflow </tspan></text>		</g>
		<g id="shape96-262" transform="translate(0.25,-414.845)">
			<title>Start/End.49</title>
			<desc>Start/End This Workflow</desc>
			<path d="M14.17 491.63 L56.69 491.63 A14.1732 14.1732 -180 0 0 56.69 463.28 L14.17 463.28 A14.1732 14.1732 -180 1 0 14.17
						 491.63 Z" class="st1"/>
			<text x="10.85" y="475.06" class="st2">Start/End This <tspan x="18.52" dy="1.2em" class="st3">Workflow</tspan></text>		</g>
		<g id="shape97-266" transform="translate(0.25,-377.995)">
			<title>Start/End.52</title>
			<desc>Review of stated item</desc>
			<path d="M14.17 491.63 L56.69 491.63 A14.1732 14.1732 -180 0 0 56.69 463.28 L14.17 463.28 A14.1732 14.1732 -180 1 0 14.17
						 491.63 Z" class="st17"/>
			<text x="6.4" y="475.06" class="st2">Review of stated <tspan x="27.57" dy="1.2em" class="st3">item</tspan></text>		</g>
		<g id="shape98-270" transform="translate(0.25,-326.971)">
			<title>Decision.54</title>
			<desc>Decision</desc>
			<path d="M0 470.37 L35.43 449.11 L70.87 470.37 L35.43 491.63 L0 470.37 Z" class="st4"/>
			<text x="20.45" y="472.77" class="st2">Decision</text>		</g>
		<g id="shape99-273" transform="translate(0.25,-275.948)">
			<title>Process.55</title>
			<desc>Workflow Action</desc>
			<rect x="0" y="449.111" width="70.8661" height="42.5197" class="st12"/>
			<text x="6.06" y="472.77" class="st2">Workflow Action</text>		</g>
		<g id="shape100-276" transform="translate(0.25,-239.097)">
			<title>Start/End.56</title>
			<desc>Resume External Workflow</desc>
			<path d="M14.17 491.63 L56.69 491.63 A14.1732 14.1732 -180 0 0 56.69 463.28 L14.17 463.28 A14.1732 14.1732 -180 1 0 14.17
						 491.63 Z" class="st15"/>
			<text x="6.39" y="475.06" class="st16">Resume External <tspan x="18.52" dy="1.2em" class="st3">Workflow</tspan></text>		</g>
		<g id="shape101-280" transform="translate(485.683,-383.381)">
			<title>Decision.101</title>
			<desc>Willing to let HPC Support Team Assist?</desc>
			<path d="M0 455.91 L44.65 420.2 L89.29 455.91 L44.65 491.63 L0 455.91 Z" class="st4"/>
			<text x="13.46" y="453.51" class="st2">Willing to let HPC <tspan x="19.7" dy="1.2em" class="st3">Support Team </tspan><tspan
						x="32.86" dy="1.2em" class="st3">Assist?</tspan></text>		</g>
		<g id="shape102-285" transform="translate(523.242,-356.678)">
			<title>Dynamic connector.102</title>
			<desc>YES</desc>
			<path d="M7.09 491.63 L7.09 470.97" class="st5"/>
			<rect x="0.727239" y="473.48" width="12.7186" height="9.59985" class="st18"/>
			<text x="0.73" y="480.68" class="st8">YES</text>		</g>
		<g id="shape103-292" transform="translate(574.974,-426.184)">
			<title>Dynamic connector.103</title>
			<desc>YES</desc>
			<path d="M0 498.72 L32.94 498.72" class="st5"/>
			<rect x="13.1288" y="493.918" width="12.7186" height="9.59985" class="st18"/>
			<text x="13.13" y="501.12" class="st8">YES</text>		</g>
		<g id="shape104-299" transform="translate(530.329,-454.814)">
			<title>Dynamic connector.104</title>
			<desc>NO</desc>
			<path d="M0 491.63 L0 470.37 L219.69 470.37 L219.69 587.35" class="st5"/>
			<rect x="154.717" y="465.571" width="12.0155" height="9.59985" class="st7"/>
			<text x="154.72" y="472.77" class="st8">NO</text>		</g>
		<g id="shape1000-306" transform="translate(613.951,-392.792)">
			<title>Start/End.1000</title>
			<desc>Enquire with HPC Support Team before running job on /local</desc>
			<path d="M20.55 491.63 L61.65 491.63 A20.5512 26.3055 -180 0 0 61.65 439.02 L20.55 439.02 A20.5512 26.3055 -180 1 0 20.55
						 491.63 Z" class="st1"/>
			<text x="10.52" y="458.13" class="st2">Enquire with HPC <tspan x="3.54" dy="1.2em" class="st3">Support Team before </tspan><tspan
						x="4.05" dy="1.2em" class="st3">running job on /local</tspan></text>		</g>
	</g>
</svg>
