<?xml version="1.0" encoding="UTF-8" standalone="no"?>
<!DOCTYPE svg PUBLIC "-//W3C//DTD SVG 1.1//EN" "http://www.w3.org/Graphics/SVG/1.1/DTD/svg11.dtd">
<!-- Generated by Microsoft Visio, SVG Export HPC_Research_Data_Flow.svg Page-1 -->
<svg xmlns="http://www.w3.org/2000/svg" xmlns:xlink="http://www.w3.org/1999/xlink" xmlns:ev="http://www.w3.org/2001/xml-events"
		width="6.7786in" height="5.04631in" viewBox="0 0 488.059 363.335" xml:space="preserve" color-interpolation-filters="sRGB"
		class="st17">
	<style type="text/css">
	<![CDATA[
		.st1 {fill:#339933;stroke:#ffffff;stroke-linecap:round;stroke-linejoin:round;stroke-width:0.5}
		.st2 {fill:#ffffff;font-family:Segoe UI;font-size:0.666664em}
		.st3 {font-size:1em}
		.st4 {marker-end:url(#mrkr4-10);stroke:#1998d6;stroke-linecap:round;stroke-linejoin:round;stroke-width:0.5}
		.st5 {fill:#1998d6;fill-opacity:1;stroke:#1998d6;stroke-opacity:1;stroke-width:0.16556291390728}
		.st6 {fill:#d80073;stroke:#ffffff;stroke-linecap:round;stroke-linejoin:round;stroke-width:0.5}
		.st7 {fill:#ffffff;stroke:none;stroke-linecap:butt;stroke-width:7.2}
		.st8 {fill:#1076a7;font-family:Segoe UI;font-size:0.666664em}
		.st9 {fill:#f09609;stroke:#ffffff;stroke-linecap:round;stroke-linejoin:round;stroke-width:0.5}
		.st10 {fill:#1ba1e2;stroke:#ffffff;stroke-linecap:round;stroke-linejoin:round;stroke-width:0.5}
		.st11 {fill:#ffffff;stroke:none;stroke-linecap:butt}
		.st12 {fill:#ffffff;stroke:#d80073;stroke-linecap:round;stroke-linejoin:round;stroke-width:0.5}
		.st13 {fill:#d80073;font-family:Segoe UI;font-size:0.666664em}
		.st14 {fill:#ffffff}
		.st15 {stroke:#1ba1e2;stroke-linecap:round;stroke-linejoin:round;stroke-width:0.5}
		.st16 {fill:#1ba1e2;font-family:Segoe UI;font-size:0.666664em}
		.st17 {fill:none;fill-rule:evenodd;font-size:12px;overflow:visible;stroke-linecap:square;stroke-miterlimit:3}
	]]>
	</style>

	<defs id="Markers">
		<g id="lend4">
			<path d="M 2 1 L 0 0 L 2 -1 L 2 1 " style="stroke:none"/>
		</g>
		<marker id="mrkr4-10" class="st5" refX="-12.08" orient="auto" markerUnits="strokeWidth" overflow="visible">
			<use xlink:href="#lend4" transform="scale(-6.04,-6.04) "/>
		</marker>
	</defs>
	<g>
		<title>Page-1</title>
		<g id="shape1-1" transform="translate(309.463,-273.623)">
			<title>Start/End</title>
			<desc>Start HPC Data Workflow</desc>
			<path d="M14.17 363.33 L44.88 363.33 A14.1732 14.1732 -180 0 0 44.88 334.99 L14.17 334.99 A14.1732 14.1732 -180 1 0 14.17
						 363.33 Z" class="st1"/>
			<text x="3.29" y="346.76" class="st2">Start HPC Data <tspan x="12.61" dy="1.2em" class="st3">Workflow</tspan></text>		</g>
		<g id="shape3-5" transform="translate(331.904,-273.623)">
			<title>Dynamic connector</title>
			<path d="M7.09 363.33 L7.09 386.66" class="st4"/>
		</g>
		<g id="shape2-11" transform="translate(303.557,-201.737)">
			<title>Decision</title>
			<desc>Data already on HPC?</desc>
			<path d="M0 342.07 L35.43 320.81 L70.87 342.07 L35.43 363.33 L0 342.07 Z" class="st6"/>
			<text x="13.29" y="339.67" class="st2">Data already <tspan x="20.38" dy="1.2em" class="st3">on HPC?</tspan></text>		</g>
		<g id="shape7-15" transform="translate(303.557,-230.083)">
			<title>Dynamic connector.7</title>
			<desc>NO</desc>
			<path d="M0 370.42 L-36.48 370.42" class="st4"/>
			<rect x="-27.2677" y="365.622" width="12.0155" height="9.59985" class="st7"/>
			<text x="-27.27" y="372.82" class="st8">NO</text>		</g>
		<g id="shape6-22" transform="translate(190.171,-201.737)">
			<title>Decision.6</title>
			<desc>Data on R:\ Drive?</desc>
			<path d="M0 342.07 L35.43 320.81 L70.87 342.07 L35.43 363.33 L0 342.07 Z" class="st6"/>
			<text x="15.63" y="339.67" class="st2">Data on R:\ <tspan x="24.47" dy="1.2em" class="st3">Drive?</tspan></text>		</g>
		<g id="shape11-26" transform="translate(218.518,-201.737)">
			<title>Dynamic connector.11</title>
			<desc>YES</desc>
			<path d="M7.09 363.33 L7.09 386.66" class="st4"/>
			<rect x="0.727239" y="373.218" width="12.7186" height="9.59985" class="st7"/>
			<text x="0.73" y="380.42" class="st8">YES</text>		</g>
		<g id="shape18-33" transform="translate(218.518,-244.256)">
			<title>Dynamic connector.18</title>
			<desc>NO</desc>
			<path d="M7.09 363.33 L7.09 340.01" class="st4"/>
			<rect x="1.0788" y="343.851" width="12.0155" height="9.59985" class="st7"/>
			<text x="1.08" y="351.05" class="st8">NO</text>		</g>
		<g id="shape17-40" transform="translate(190.171,-273.623)">
			<title>Start/End.17</title>
			<desc>Review Storage Location of Research Data</desc>
			<path d="M14.17 363.33 L56.69 363.33 A14.1732 14.1732 -180 0 0 56.69 334.99 L14.17 334.99 A14.1732 14.1732 -180 1 0 14.17
						 363.33 Z" class="st9"/>
			<text x="8.29" y="341.96" class="st2">Review Storage <tspan x="15.7" dy="1.2em" class="st3">Location of </tspan><tspan
						x="10.3" dy="1.2em" class="st3">Research Data</tspan></text>		</g>
		<g id="shape19-45" transform="translate(190.171,-129.85)">
			<title>Process</title>
			<desc>Transfer Data to Local Machine</desc>
			<rect x="0" y="320.815" width="70.8661" height="42.5197" class="st10"/>
			<text x="7.1" y="339.67" class="st2">Transfer Data to <tspan x="10.2" dy="1.2em" class="st3">Local Machine</tspan></text>		</g>
		<g id="shape26-49" transform="translate(303.557,-57.9634)">
			<title>Process.26</title>
			<desc>Transfer Data off HPC</desc>
			<rect x="0" y="320.815" width="70.8661" height="42.5197" class="st10"/>
			<text x="5.95" y="339.67" class="st2">Transfer Data off <tspan x="27.88" dy="1.2em" class="st3">HPC</tspan></text>		</g>
		<g id="shape31-53" transform="translate(303.557,-86.3098)">
			<title>Dynamic connector.31</title>
			<path d="M0 370.42 L-42.39 370.42" class="st4"/>
		</g>
		<g id="shape32-58" transform="translate(374.423,-222.996)">
			<title>Dynamic connector.32</title>
			<desc>YES</desc>
			<path d="M0 363.33 L77.95 363.33 L77.95 407.92" class="st4"/>
			<rect x="29.9303" y="358.251" width="12.7186" height="9.59985" class="st11"/>
			<text x="29.93" y="365.45" class="st8">YES</text>		</g>
		<g id="shape34-65" transform="translate(190.171,-0.25)">
			<title>Start/End.34</title>
			<desc>Resume Research Data Workflow</desc>
			<path d="M14.17 363.33 L56.69 363.33 A14.1732 14.1732 -180 0 0 56.69 334.99 L14.17 334.99 A14.1732 14.1732 -180 1 0 14.17
						 363.33 Z" class="st12"/>
			<text x="4.54" y="346.76" class="st13">Resume Research <tspan x="9.19" dy="1.2em" class="st3">Data Workflow</tspan></text>		</g>
		<g id="shape45-69" transform="translate(452.376,-129.85)">
			<title>Dynamic connector.45</title>
			<path d="M0 363.33 L0 413.96 L-71.91 413.96" class="st4"/>
		</g>
		<g id="shape44-74" transform="translate(416.943,-129.85)">
			<title>Subprocess</title>
			<desc>Start HPC Computation Workflow</desc>
			<path d="M0 363.33 L70.87 363.33 L70.87 320.81 L0 320.81 L0 363.33 Z" class="st14"/>
			<path d="M0 363.33 L70.87 363.33 L70.87 320.81 L0 320.81 L0 363.33" class="st15"/>
			<path d="M8.5 363.33 L8.5 320.81" class="st15"/>
			<path d="M62.36 363.33 L62.36 320.81" class="st15"/>
			<text x="18.52" y="334.87" class="st16">Start HPC <tspan x="12.23" dy="1.2em" class="st3">Computation </tspan><tspan
						x="18.52" dy="1.2em" class="st3">Workflow</tspan></text>		</g>
		<g id="shape47-82" transform="translate(261.037,-144.023)">
			<title>Dynamic connector.47</title>
			<path d="M0 356.25 L36.48 356.25" class="st4"/>
		</g>
		<g id="shape48-87" transform="translate(0.25,-320.565)">
			<title>Subprocess.48</title>
			<desc>Complete an External Workflow</desc>
			<path d="M0 363.33 L70.87 363.33 L70.87 320.81 L0 320.81 L0 363.33 Z" class="st14"/>
			<path d="M0 363.33 L70.87 363.33 L70.87 320.81 L0 320.81 L0 363.33" class="st15"/>
			<path d="M8.5 363.33 L8.5 320.81" class="st15"/>
			<path d="M62.36 363.33 L62.36 320.81" class="st15"/>
			<text x="12.91" y="334.87" class="st16">Complete an <tspan x="21.47" dy="1.2em" class="st3">External </tspan><tspan
						x="18.52" dy="1.2em" class="st3">Workflow </tspan></text>		</g>
		<g id="shape49-95" transform="translate(0.25,-286.549)">
			<title>Start/End.49</title>
			<desc>Start/End This Workflow</desc>
			<path d="M14.17 363.33 L56.69 363.33 A14.1732 14.1732 -180 0 0 56.69 334.99 L14.17 334.99 A14.1732 14.1732 -180 1 0 14.17
						 363.33 Z" class="st1"/>
			<text x="10.85" y="346.76" class="st2">Start/End This <tspan x="18.52" dy="1.2em" class="st3">Workflow</tspan></text>		</g>
		<g id="shape50-99" transform="translate(196.077,-65.05)">
			<title>Start/End.50</title>
			<desc>End HPC Data Workflow</desc>
			<path d="M14.17 363.33 L44.88 363.33 A14.1732 14.1732 -180 0 0 44.88 334.99 L14.17 334.99 A14.1732 14.1732 -180 1 0 14.17
						 363.33 Z" class="st1"/>
			<text x="4.91" y="346.76" class="st2">End HPC Data <tspan x="12.61" dy="1.2em" class="st3">Workflow</tspan></text>		</g>
		<g id="shape51-103" transform="translate(218.518,-65.05)">
			<title>Dynamic connector.51</title>
			<path d="M7.09 363.33 L7.09 393.75" class="st4"/>
		</g>
		<g id="shape52-108" transform="translate(0.25,-249.699)">
			<title>Start/End.52</title>
			<desc>Review of stated item</desc>
			<path d="M14.17 363.33 L56.69 363.33 A14.1732 14.1732 -180 0 0 56.69 334.99 L14.17 334.99 A14.1732 14.1732 -180 1 0 14.17
						 363.33 Z" class="st9"/>
			<text x="6.4" y="346.76" class="st2">Review of stated <tspan x="27.57" dy="1.2em" class="st3">item</tspan></text>		</g>
		<g id="shape54-112" transform="translate(0.25,-198.675)">
			<title>Decision.54</title>
			<desc>Decision</desc>
			<path d="M0 342.07 L35.43 320.81 L70.87 342.07 L35.43 363.33 L0 342.07 Z" class="st6"/>
			<text x="20.45" y="344.47" class="st2">Decision</text>		</g>
		<g id="shape55-115" transform="translate(0.25,-147.652)">
			<title>Process.55</title>
			<desc>Workflow Action</desc>
			<rect x="0" y="320.815" width="70.8661" height="42.5197" class="st10"/>
			<text x="6.06" y="344.47" class="st2">Workflow Action</text>		</g>
		<g id="shape56-118" transform="translate(0.25,-110.801)">
			<title>Start/End.56</title>
			<desc>Resume External Workflow</desc>
			<path d="M14.17 363.33 L56.69 363.33 A14.1732 14.1732 -180 0 0 56.69 334.99 L14.17 334.99 A14.1732 14.1732 -180 1 0 14.17
						 363.33 Z" class="st12"/>
			<text x="6.39" y="346.76" class="st13">Resume External <tspan x="18.52" dy="1.2em" class="st3">Workflow</tspan></text>		</g>
		<g id="shape57-122" transform="translate(249.699,-317.73)">
			<title>Decision.57</title>
			<desc>HPC Computation Needed?</desc>
			<path d="M0 340.66 L35.43 317.98 L70.87 340.66 L35.43 363.33 L0 340.66 Z" class="st6"/>
			<text x="27.88" y="333.46" class="st2">HPC <tspan x="12.23" dy="1.2em" class="st3">Computation </tspan><tspan x="19.66"
						dy="1.2em" class="st3">Needed?</tspan></text>		</g>
		<g id="shape58-127" transform="translate(320.565,-340.407)">
			<title>Dynamic connector.58</title>
			<desc>YES</desc>
			<path d="M0 363.33 L18.43 363.33 L18.43 395.73" class="st4"/>
			<rect x="12.0658" y="368.541" width="12.7186" height="9.59985" class="st7"/>
			<text x="12.07" y="375.74" class="st8">YES</text>		</g>
		<g id="shape59-134" transform="translate(249.699,-340.407)">
			<title>Dynamic connector.59</title>
			<desc>NO</desc>
			<path d="M0 363.33 L-80.79 363.33 L-80.79 689.32 L-65.57 689.32" class="st4"/>
			<rect x="-86.7952" y="491.763" width="12.0155" height="9.59985" class="st7"/>
			<text x="-86.8" y="498.96" class="st8">NO</text>		</g>
		<g id="shape1000-141" transform="translate(303.557,-129.85)">
			<title>Process.1000</title>
			<desc>Transfer Data on to HPC</desc>
			<rect x="0" y="320.815" width="70.8661" height="42.5197" class="st10"/>
			<text x="6.19" y="339.67" class="st2">Transfer Data on <tspan x="23.08" dy="1.2em" class="st3">to HPC</tspan></text>		</g>
		<g id="shape1001-145" transform="translate(374.423,-158.196)">
			<title>Dynamic connector.1001</title>
			<path d="M0 370.42 L36.48 370.42" class="st4"/>
		</g>
	</g>
</svg>
